<?xml version="1.0" standalone="no"?>
<!DOCTYPE svg PUBLIC "-//W3C//DTD SVG 20010904//EN"
 "http://www.w3.org/TR/2001/REC-SVG-20010904/DTD/svg10.dtd">
<svg version="1.0" xmlns="http://www.w3.org/2000/svg"
 width="381.000000pt" height="82.000000pt" viewBox="0 0 381.000000 82.000000"
 preserveAspectRatio="xMidYMid meet">

<g transform="translate(0.000000,82.000000) scale(0.100000,-0.100000)"
fill="#000000" stroke="none">
<path d="M110 795 c0 -21 -5 -25 -30 -25 -28 0 -30 -3 -30 -34 0 -30 -4 -35
-27 -39 -26 -4 -26 -4 5 -6 30 -1 32 1 32 34 0 32 2 35 30 35 27 0 30 3 30 30
0 17 -2 30 -5 30 -3 0 -5 -11 -5 -25z"/>
<path d="M190 475 l0 -345 -30 0 c-27 0 -30 -3 -30 -30 0 -28 -3 -30 -35 -30
l-35 0 0 280 0 280 -32 -1 c-31 -2 -31 -2 -5 -6 l27 -4 0 -269 0 -269 -27 -4
c-26 -4 -26 -4 5 -6 30 -1 32 -4 34 -38 1 -37 1 -37 5 -5 4 29 7 32 39 32 31
0 34 2 34 30 0 27 3 30 30 30 l30 0 0 350 c0 193 -2 350 -5 350 -3 0 -5 -155
-5 -345z"/>
<path d="M1860 795 c0 -22 -4 -25 -35 -25 -33 0 -35 -2 -35 -35 0 -32 -2 -35
-30 -35 -27 0 -30 -3 -30 -30 0 -27 -3 -30 -30 -30 l-30 0 0 -200 0 -200 30 0
c27 0 30 -3 30 -30 0 -27 3 -30 30 -30 27 0 30 -3 30 -30 l0 -30 95 0 95 0 0
-30 c0 -27 3 -30 29 -30 26 0 30 -4 34 -32 4 -32 4 -32 5 5 2 35 0 37 -28 37
-27 0 -30 3 -30 30 l0 30 -95 0 -95 0 0 30 c0 27 -3 30 -30 30 -27 0 -30 3
-30 30 0 27 -3 30 -30 30 l-30 0 0 190 0 190 30 0 c27 0 30 3 30 30 0 27 3 30
30 30 28 0 30 3 30 35 0 33 2 35 35 35 32 0 35 2 35 30 0 17 -2 30 -5 30 -3 0
-5 -11 -5 -25z"/>
<path d="M2061 793 c-1 -30 2 -33 29 -33 28 0 30 -3 30 -35 0 -32 2 -35 30
-35 l30 0 0 -185 0 -185 -30 0 c-28 0 -30 -3 -30 -35 0 -32 -2 -35 -30 -35
-27 0 -30 -3 -30 -30 0 -27 3 -30 30 -30 27 0 30 -3 30 -30 0 -27 3 -30 30
-30 27 0 30 -3 30 -30 0 -27 -3 -30 -30 -30 -28 0 -30 -2 -28 -37 1 -37 1 -37
5 -5 4 28 8 32 34 32 26 0 29 3 29 30 0 27 3 30 30 30 28 0 30 2 30 40 l0 40
-40 0 c-38 0 -40 -2 -40 -30 0 -23 -4 -30 -20 -30 -16 0 -20 7 -20 30 0 27 -3
30 -30 30 -23 0 -30 4 -30 20 0 16 7 20 30 20 28 0 30 3 30 35 0 32 2 35 30
35 l30 0 0 195 0 195 -30 0 c-28 0 -30 3 -30 35 0 32 -2 35 -29 35 -25 0 -30
5 -34 28 -4 25 -4 25 -6 -5z m179 -633 c0 -27 -3 -30 -30 -30 -27 0 -30 3 -30
30 0 27 3 30 30 30 27 0 30 -3 30 -30z"/>
<path d="M3040 795 c0 -21 -5 -25 -30 -25 l-30 0 0 -75 0 -75 45 0 c43 0 45 1
45 30 0 27 3 30 30 30 l30 0 -2 73 -2 72 -3 -67 c-4 -68 -4 -68 -33 -68 -27 0
-30 -3 -30 -30 0 -28 -3 -30 -35 -30 l-35 0 0 65 0 65 30 0 c27 0 30 3 30 30
0 17 -2 30 -5 30 -3 0 -5 -11 -5 -25z"/>
<path d="M1870 720 c0 -27 -3 -30 -30 -30 l-30 0 0 -185 0 -185 30 0 c27 0 30
-3 30 -30 0 -27 3 -30 30 -30 28 0 30 -3 30 -35 0 -32 2 -35 30 -35 28 0 30 3
30 35 0 32 2 35 30 35 l30 0 0 185 0 185 -30 0 c-27 0 -30 3 -30 30 0 27 -3
30 -30 30 -27 0 -30 3 -30 30 0 27 -3 30 -30 30 -27 0 -30 -3 -30 -30z m50
-10 c0 -27 3 -30 30 -30 27 0 30 -3 30 -30 0 -27 3 -30 30 -30 l30 0 0 -175 0
-175 -30 0 c-28 0 -30 -3 -30 -35 0 -28 -4 -35 -20 -35 -16 0 -20 7 -20 35 0
32 -2 35 -30 35 -27 0 -30 3 -30 30 0 27 -3 30 -30 30 l-30 0 0 175 0 175 30
0 c27 0 30 3 30 30 0 23 4 30 20 30 16 0 20 -7 20 -30z"/>
<path d="M360 610 c0 -27 -3 -30 -30 -30 -27 0 -30 -3 -30 -30 0 -27 -3 -30
-30 -30 l-30 0 0 -140 0 -140 30 0 c27 0 30 -3 30 -30 0 -27 3 -30 30 -30 27
0 30 -3 30 -30 l0 -30 105 0 105 0 0 30 c0 28 3 30 35 30 32 0 35 2 35 30 0
27 3 30 30 30 l30 0 0 140 0 140 -30 0 c-27 0 -30 3 -30 30 0 28 -3 30 -35 30
-32 0 -35 2 -35 30 l0 30 -105 0 -105 0 0 -30z m200 -10 c0 -28 3 -30 35 -30
32 0 35 -2 35 -30 0 -27 3 -30 30 -30 l30 0 0 -130 0 -130 -30 0 c-27 0 -30
-3 -30 -30 0 -28 -3 -30 -35 -30 l-35 0 0 125 0 125 -30 0 c-27 0 -30 3 -30
30 0 27 -3 30 -30 30 -28 0 -30 3 -30 35 0 32 -2 35 -30 35 l-30 0 0 -125 0
-125 30 0 c27 0 30 -3 30 -30 0 -27 3 -30 30 -30 28 0 30 -3 30 -35 0 -32 2
-35 30 -35 27 0 30 -3 30 -30 l0 -30 -95 0 -95 0 0 30 c0 27 -3 30 -30 30 -27
0 -30 3 -30 30 0 27 -3 30 -30 30 l-30 0 0 130 0 130 30 0 c27 0 30 3 30 30 0
27 3 30 30 30 27 0 30 3 30 30 l0 30 95 0 95 0 0 -30z m-130 -75 c0 -32 2 -35
30 -35 27 0 30 -3 30 -30 0 -27 3 -30 30 -30 l30 0 0 -115 c0 -108 -1 -115
-20 -115 -16 0 -20 7 -20 35 0 32 -2 35 -30 35 -27 0 -30 3 -30 30 0 27 -3 30
-30 30 l-30 0 0 115 c0 108 1 115 20 115 16 0 20 -7 20 -35z"/>
<path d="M860 610 c0 -27 -3 -30 -30 -30 -27 0 -30 -3 -30 -30 0 -27 -3 -30
-30 -30 -29 0 -30 -2 -30 -45 0 -43 1 -45 30 -45 l30 0 0 -155 0 -155 75 0 75
0 0 30 c0 27 3 30 30 30 29 0 30 2 30 45 0 43 -1 45 -30 45 l-30 0 0 80 0 80
30 0 c27 0 30 3 30 30 0 27 3 30 30 30 28 0 30 3 30 35 0 28 4 35 20 35 19 0
20 -7 20 -220 l0 -220 75 0 75 0 0 30 c0 27 3 30 30 30 29 0 30 2 30 45 0 43
-1 45 -30 45 l-30 0 0 185 0 185 -105 0 -105 0 0 -30 c0 -27 -3 -30 -30 -30
-27 0 -30 -3 -30 -30 0 -23 -4 -30 -20 -30 -18 0 -20 7 -20 60 l0 60 -45 0
c-43 0 -45 -1 -45 -30z m80 -40 l0 -60 30 0 c27 0 30 3 30 30 0 27 3 30 30 30
27 0 30 3 30 30 l0 30 95 0 95 0 0 -185 0 -185 30 0 c28 0 30 -3 30 -35 0 -32
-2 -35 -30 -35 -27 0 -30 -3 -30 -30 l0 -30 -65 0 -65 0 0 220 0 220 -30 0
c-28 0 -30 -3 -30 -35 0 -32 -2 -35 -30 -35 -27 0 -30 -3 -30 -30 0 -27 -3
-30 -30 -30 l-30 0 0 -90 0 -90 30 0 c28 0 30 -3 30 -35 0 -32 -2 -35 -30 -35
-27 0 -30 -3 -30 -30 l0 -30 -65 0 -65 0 0 155 0 155 -30 0 c-28 0 -30 3 -30
35 0 32 2 35 30 35 27 0 30 3 30 30 0 27 3 30 30 30 27 0 30 3 30 30 0 28 3
30 35 30 l35 0 0 -60z"/>
<path d="M2420 610 c0 -27 -3 -30 -30 -30 -27 0 -30 -3 -30 -30 0 -27 -3 -30
-30 -30 -29 0 -30 -2 -30 -45 0 -43 1 -45 30 -45 l30 0 0 -125 0 -125 30 0
c27 0 30 -3 30 -30 l0 -30 75 0 75 0 0 30 c0 27 3 30 30 30 27 0 30 3 30 30 0
23 4 30 20 30 18 0 20 -7 20 -60 l0 -60 75 0 75 0 0 30 c0 27 3 30 30 30 29 0
30 2 30 45 0 43 -1 45 -30 45 l-30 0 0 185 0 185 -40 0 c-38 0 -40 -2 -40 -30
0 -28 -3 -30 -35 -30 l-35 0 0 -125 0 -125 -30 0 c-27 0 -30 -3 -30 -30 0 -29
-1 -30 -50 -30 l-50 0 0 185 0 185 -45 0 c-43 0 -45 -1 -45 -30z m80 -165 l0
-185 60 0 60 0 0 30 c0 27 3 30 30 30 l30 0 0 125 0 125 35 0 c32 0 35 2 35
30 0 27 3 30 30 30 l30 0 0 -185 0 -185 30 0 c28 0 30 -3 30 -35 0 -32 -2 -35
-30 -35 -27 0 -30 -3 -30 -30 l0 -30 -65 0 -65 0 0 60 0 60 -30 0 c-27 0 -30
-3 -30 -30 0 -27 -3 -30 -30 -30 -27 0 -30 -3 -30 -30 l0 -30 -65 0 -65 0 0
30 c0 27 -3 30 -30 30 l-30 0 0 125 0 125 -30 0 c-28 0 -30 3 -30 35 0 32 2
35 30 35 27 0 30 3 30 30 0 27 3 30 30 30 27 0 30 3 30 30 0 28 3 30 35 30
l35 0 0 -185z"/>
<path d="M3360 610 c0 -27 -3 -30 -30 -30 -27 0 -30 -3 -30 -30 0 -27 -3 -30
-30 -30 -29 0 -30 -2 -30 -45 0 -43 1 -45 30 -45 l30 0 0 -155 0 -155 75 0 75
0 0 30 c0 27 3 30 30 30 29 0 30 2 30 45 0 43 -1 45 -30 45 l-30 0 0 80 0 80
30 0 c27 0 30 3 30 30 0 27 3 30 30 30 28 0 30 3 30 35 0 28 4 35 20 35 19 0
20 -7 20 -220 l0 -220 75 0 75 0 0 29 c0 25 5 30 28 34 25 4 25 4 -5 6 -30 1
-33 -2 -33 -29 l0 -30 -65 0 -65 0 0 220 0 220 -30 0 c-27 0 -30 3 -30 30 l0
30 95 0 95 0 0 -185 0 -185 33 1 c30 2 30 2 5 6 l-28 4 0 185 0 184 -105 0
-105 0 0 -30 c0 -27 -3 -30 -30 -30 -27 0 -30 -3 -30 -30 0 -23 -4 -30 -20
-30 -18 0 -20 7 -20 60 l0 60 -45 0 c-43 0 -45 -1 -45 -30z m80 -40 l0 -60 30
0 c27 0 30 3 30 30 0 27 3 30 30 30 28 0 30 -3 30 -35 0 -32 -2 -35 -30 -35
-27 0 -30 -3 -30 -30 0 -27 -3 -30 -30 -30 l-30 0 0 -90 0 -90 30 0 c28 0 30
-3 30 -35 0 -32 -2 -35 -30 -35 -27 0 -30 -3 -30 -30 l0 -30 -65 0 -65 0 0
155 0 155 -30 0 c-28 0 -30 3 -30 35 0 32 2 35 30 35 27 0 30 3 30 30 0 27 3
30 30 30 27 0 30 3 30 30 0 28 3 30 35 30 l35 0 0 -60z"/>
<path d="M3040 550 c0 -27 -3 -30 -30 -30 -28 0 -30 -3 -30 -35 0 -32 -2 -35
-30 -35 -28 0 -30 -2 -30 -40 0 -38 2 -40 30 -40 l30 0 0 -125 0 -125 75 0 75
0 0 30 c0 27 3 30 30 30 29 0 30 2 30 45 0 43 -1 45 -30 45 l-30 0 0 155 0
155 -45 0 c-43 0 -45 -1 -45 -30z m80 -135 l0 -155 30 0 c28 0 30 -3 30 -35 0
-32 -2 -35 -30 -35 -27 0 -30 -3 -30 -30 l0 -30 -65 0 -65 0 0 125 0 125 -30
0 c-27 0 -30 3 -30 30 0 27 3 30 30 30 28 0 30 3 30 35 0 32 2 35 30 35 27 0
30 3 30 30 0 28 3 30 35 30 l35 0 0 -155z"/>
</g>
</svg>
